<svg width="122" height="20" viewBox="0 0 122 20" fill="none" xmlns="http://www.w3.org/2000/svg">
<path d="M4.76838 14.722L0.858383 10.863L4.76838 7.004H7.21638L3.28938 10.863L7.21638 14.722H4.76838ZM12.8146 15.436H16.8096V17H10.8766V5.185H12.8146V15.436ZM20.3683 6.749V10.217H24.4483V11.798H20.3683V15.419H24.9583V17H18.4303V5.168H24.9583V6.749H20.3683ZM32.7343 17.119C31.635 17.119 30.6206 16.864 29.6913 16.354C28.7733 15.8327 28.0423 15.113 27.4983 14.195C26.9656 13.2657 26.6993 12.223 26.6993 11.067C26.6993 9.911 26.9656 8.874 27.4983 7.956C28.0423 7.038 28.7733 6.324 29.6913 5.814C30.6206 5.29267 31.635 5.032 32.7343 5.032C33.845 5.032 34.8593 5.29267 35.7773 5.814C36.7066 6.324 37.4376 7.038 37.9703 7.956C38.503 8.874 38.7693 9.911 38.7693 11.067C38.7693 12.223 38.503 13.2657 37.9703 14.195C37.4376 15.113 36.7066 15.8327 35.7773 16.354C34.8593 16.864 33.845 17.119 32.7343 17.119ZM32.7343 15.436C33.5163 15.436 34.2133 15.2603 34.8253 14.909C35.4373 14.5463 35.9133 14.0363 36.2533 13.379C36.6046 12.7103 36.7803 11.9397 36.7803 11.067C36.7803 10.1943 36.6046 9.42933 36.2533 8.772C35.9133 8.11467 35.4373 7.61033 34.8253 7.259C34.2133 6.90767 33.5163 6.732 32.7343 6.732C31.9523 6.732 31.2553 6.90767 30.6433 7.259C30.0313 7.61033 29.5496 8.11467 29.1983 8.772C28.8583 9.42933 28.6883 10.1943 28.6883 11.067C28.6883 11.9397 28.8583 12.7103 29.1983 13.379C29.5496 14.0363 30.0313 14.5463 30.6433 14.909C31.2553 15.2603 31.9523 15.436 32.7343 15.436ZM50.3834 17H48.4454L42.6144 8.177V17H40.6764V5.168H42.6144L48.4454 13.974V5.168H50.3834V17ZM60.0513 14.586H55.1043L54.2543 17H52.2313L56.4643 5.168H58.7083L62.9413 17H60.9013L60.0513 14.586ZM59.5073 13.005L57.5863 7.514L55.6483 13.005H59.5073ZM70.9188 17L68.1988 12.274H66.7198V17H64.7818V5.185H68.8618C69.7685 5.185 70.5335 5.34367 71.1568 5.661C71.7915 5.97833 72.2618 6.40333 72.5678 6.936C72.8852 7.46867 73.0438 8.06367 73.0438 8.721C73.0438 9.49167 72.8172 10.1943 72.3638 10.829C71.9218 11.4523 71.2362 11.8773 70.3068 12.104L73.2308 17H70.9188ZM66.7198 10.727H68.8618C69.5872 10.727 70.1312 10.5457 70.4938 10.183C70.8678 9.82033 71.0548 9.333 71.0548 8.721C71.0548 8.109 70.8735 7.633 70.5108 7.293C70.1482 6.94167 69.5985 6.766 68.8618 6.766H66.7198V10.727ZM79.382 5.185C80.64 5.185 81.7394 5.42867 82.68 5.916C83.632 6.392 84.363 7.08333 84.873 7.99C85.3944 8.88533 85.655 9.93367 85.655 11.135C85.655 12.3363 85.3944 13.379 84.873 14.263C84.363 15.147 83.632 15.827 82.68 16.303C81.7394 16.7677 80.64 17 79.382 17H75.523V5.185H79.382ZM79.382 15.419C80.7647 15.419 81.8244 15.045 82.561 14.297C83.2977 13.549 83.666 12.495 83.666 11.135C83.666 9.76367 83.2977 8.69267 82.561 7.922C81.8244 7.15133 80.7647 6.766 79.382 6.766H77.461V15.419H79.382ZM92.9648 17.119C91.8654 17.119 90.8511 16.864 89.9218 16.354C89.0038 15.8327 88.2728 15.113 87.7288 14.195C87.1961 13.2657 86.9298 12.223 86.9298 11.067C86.9298 9.911 87.1961 8.874 87.7288 7.956C88.2728 7.038 89.0038 6.324 89.9218 5.814C90.8511 5.29267 91.8654 5.032 92.9648 5.032C94.0754 5.032 95.0898 5.29267 96.0078 5.814C96.9371 6.324 97.6681 7.038 98.2008 7.956C98.7334 8.874 98.9998 9.911 98.9998 11.067C98.9998 12.223 98.7334 13.2657 98.2008 14.195C97.6681 15.113 96.9371 15.8327 96.0078 16.354C95.0898 16.864 94.0754 17.119 92.9648 17.119ZM92.9648 15.436C93.7468 15.436 94.4438 15.2603 95.0558 14.909C95.6678 14.5463 96.1438 14.0363 96.4838 13.379C96.8351 12.7103 97.0108 11.9397 97.0108 11.067C97.0108 10.1943 96.8351 9.42933 96.4838 8.772C96.1438 8.11467 95.6678 7.61033 95.0558 7.259C94.4438 6.90767 93.7468 6.732 92.9648 6.732C92.1828 6.732 91.4858 6.90767 90.8738 7.259C90.2618 7.61033 89.7801 8.11467 89.4288 8.772C89.0888 9.42933 88.9188 10.1943 88.9188 11.067C88.9188 11.9397 89.0888 12.7103 89.4288 13.379C89.7801 14.0363 90.2618 14.5463 90.8738 14.909C91.4858 15.2603 92.1828 15.436 92.9648 15.436ZM111.613 0.951999L106.989 19.975H105.085L109.692 0.951999H111.613ZM114.684 7.004H117.132L121.042 10.863L117.132 14.722H114.684L118.611 10.863L114.684 7.004Z" fill="white"/>
</svg>
